<svg width="30" height="33" viewBox="0 0 30 33" fill="none" xmlns="http://www.w3.org/2000/svg">
<path fill-rule="evenodd" clip-rule="evenodd" d="M10 0H18.4771L16.8694 6H10C7.79086 6 6 7.79086 6 10C6 12.2091 7.79086 14 10 14H14.7259L13.1182 20H10C4.47715 20 0 15.5228 0 10C0 4.47715 4.47715 0 10 0ZM18.359 8H19.6396C25.1624 8 29.6396 12.4772 29.6396 18C29.6396 23.5228 25.1624 28 19.6396 28H16.2835L14.9526 32.6519L9 32.486L12.5 22H14.6077H18H19.6396C21.8487 22 23.6396 20.2091 23.6396 18C23.6396 15.7909 21.8487 14 19.6396 14H16.7513L18.359 8Z" fill="#5F86D4"/>
</svg>
